<svg width="104" height="28" viewBox="0 0 104 28" fill="none" xmlns="http://www.w3.org/2000/svg">
<path d="M12.3199 6.16C12.3199 9.555 9.58993 12.32 6.22993 12.32C2.86993 12.32 0.174927 9.555 0.174927 6.16C0.174927 2.765 2.86993 0 6.22993 0C9.58993 0 12.3199 2.765 12.3199 6.16Z" fill="#1494C6"/>
<path d="M12.3199 6.16C12.3199 9.555 9.58993 12.32 6.22993 12.32C2.86993 12.32 0.174927 9.555 0.174927 6.16C0.174927 2.765 2.86993 0 6.22993 0C9.58993 0 12.3199 2.765 12.3199 6.16Z" fill="#1494C6"/>
<path d="M12.3199 6.16C12.3199 9.555 9.58993 12.32 6.22993 12.32C2.86993 12.32 0.174927 9.555 0.174927 6.16C0.174927 2.765 2.86993 0 6.22993 0C9.58993 0 12.3199 2.765 12.3199 6.16Z" fill="#1494C6"/>
<path d="M28 6.16V21.875C28 25.27 25.27 28 21.945 28C18.585 28 15.855 25.27 15.855 21.875V6.16C15.855 2.765 18.585 0 21.945 0C25.27 0 28 2.765 28 6.16Z" fill="#FFB347"/>
<path d="M28 6.16V21.875C28 25.27 25.27 28 21.945 28C18.585 28 15.855 25.27 15.855 21.875V6.16C15.855 2.765 18.585 0 21.945 0C25.27 0 28 2.765 28 6.16Z" fill="#FFB347"/>
<path d="M11.55 20.0893L2.45 15.4693C1.33 14.9093 0 15.7493 0 17.0093V26.2143C0 27.5093 1.33 28.3143 2.45 27.7543L11.55 23.1343C12.775 22.5043 12.775 20.7193 11.55 20.0893L2.45 15.4693C1.33 14.9093 0 15.7493 0 17.0093V26.2143C0 27.5093 1.33 28.3143 2.45 27.7543L11.55 23.1343C12.775 22.5043 12.775 20.7193 11.55 20.0893Z" fill="#2E3192"/>
<path d="M45.78 21.7C44.7667 21.7 43.8667 21.4867 43.08 21.06C42.2933 20.62 41.6667 20.02 41.2 19.26C40.7467 18.5 40.52 17.6333 40.52 16.66C40.52 15.7 40.74 14.8467 41.18 14.1C41.6333 13.34 42.2467 12.74 43.02 12.3C43.7933 11.8467 44.6533 11.62 45.6 11.62C46.5333 11.62 47.3533 11.8333 48.06 12.26C48.78 12.6733 49.34 13.2467 49.74 13.98C50.1533 14.7 50.36 15.52 50.36 16.44C50.36 16.6133 50.3467 16.7933 50.32 16.98C50.3067 17.1533 50.2733 17.3533 50.22 17.58L42.1 17.6V15.64L49 15.62L47.94 16.44C47.9133 15.8667 47.8067 15.3867 47.62 15C47.4467 14.6133 47.1867 14.32 46.84 14.12C46.5067 13.9067 46.0933 13.8 45.6 13.8C45.08 13.8 44.6267 13.92 44.24 14.16C43.8533 14.3867 43.5533 14.7133 43.34 15.14C43.14 15.5533 43.04 16.0467 43.04 16.62C43.04 17.2067 43.1467 17.72 43.36 18.16C43.5867 18.5867 43.9067 18.92 44.32 19.16C44.7333 19.3867 45.2133 19.5 45.76 19.5C46.2533 19.5 46.7 19.42 47.1 19.26C47.5 19.0867 47.8467 18.8333 48.14 18.5L49.68 20.04C49.2133 20.5867 48.64 21 47.96 21.28C47.2933 21.56 46.5667 21.7 45.78 21.7ZM56.6003 21.7C55.587 21.7 54.687 21.4867 53.9003 21.06C53.1136 20.62 52.487 20.02 52.0203 19.26C51.567 18.5 51.3403 17.6333 51.3403 16.66C51.3403 15.7 51.5603 14.8467 52.0003 14.1C52.4536 13.34 53.067 12.74 53.8403 12.3C54.6136 11.8467 55.4736 11.62 56.4203 11.62C57.3536 11.62 58.1736 11.8333 58.8803 12.26C59.6003 12.6733 60.1603 13.2467 60.5603 13.98C60.9736 14.7 61.1803 15.52 61.1803 16.44C61.1803 16.6133 61.167 16.7933 61.1403 16.98C61.127 17.1533 61.0936 17.3533 61.0403 17.58L52.9203 17.6V15.64L59.8203 15.62L58.7603 16.44C58.7336 15.8667 58.627 15.3867 58.4403 15C58.267 14.6133 58.007 14.32 57.6603 14.12C57.327 13.9067 56.9136 13.8 56.4203 13.8C55.9003 13.8 55.447 13.92 55.0603 14.16C54.6736 14.3867 54.3736 14.7133 54.1603 15.14C53.9603 15.5533 53.8603 16.0467 53.8603 16.62C53.8603 17.2067 53.967 17.72 54.1803 18.16C54.407 18.5867 54.727 18.92 55.1403 19.16C55.5536 19.3867 56.0336 19.5 56.5803 19.5C57.0736 19.5 57.5203 19.42 57.9203 19.26C58.3203 19.0867 58.667 18.8333 58.9603 18.5L60.5003 20.04C60.0336 20.5867 59.4603 21 58.7803 21.28C58.1136 21.56 57.387 21.7 56.6003 21.7ZM62.8006 21.5V7.04H65.4206V21.5H62.8006ZM72.302 21.7C71.3154 21.7 70.4287 21.48 69.642 21.04C68.8554 20.6 68.2354 20 67.782 19.24C67.3287 18.48 67.102 17.6267 67.102 16.68C67.102 15.72 67.3287 14.86 67.782 14.1C68.2354 13.34 68.8554 12.74 69.642 12.3C70.442 11.8467 71.3287 11.62 72.302 11.62C73.062 11.62 73.762 11.76 74.402 12.04C75.042 12.32 75.5954 12.72 76.062 13.24L74.382 14.94C74.1287 14.66 73.822 14.4467 73.462 14.3C73.1154 14.1533 72.7287 14.08 72.302 14.08C71.822 14.08 71.3887 14.1933 71.002 14.42C70.6287 14.6333 70.3287 14.9333 70.102 15.32C69.8887 15.6933 69.782 16.14 69.782 16.66C69.782 17.1667 69.8887 17.62 70.102 18.02C70.3287 18.4067 70.6287 18.7133 71.002 18.94C71.3887 19.1533 71.822 19.26 72.302 19.26C72.742 19.26 73.1354 19.1867 73.482 19.04C73.842 18.88 74.1487 18.6533 74.402 18.36L76.102 20.06C75.6087 20.5933 75.042 21 74.402 21.28C73.762 21.56 73.062 21.7 72.302 21.7ZM77.5858 21.5V7.04H80.2058V21.5H77.5858ZM82.5272 21.5V11.84H85.1672V21.5H82.5272ZM83.8472 10.28C83.4205 10.28 83.0672 10.14 82.7872 9.86C82.5072 9.56667 82.3672 9.20667 82.3672 8.78C82.3672 8.36667 82.5072 8.01333 82.7872 7.72C83.0672 7.42667 83.4205 7.28 83.8472 7.28C84.2872 7.28 84.6405 7.42667 84.9072 7.72C85.1872 8.01333 85.3272 8.36667 85.3272 8.78C85.3272 9.20667 85.1872 9.56667 84.9072 9.86C84.6405 10.14 84.2872 10.28 83.8472 10.28ZM92.8481 21.7C92.1548 21.7 91.5281 21.56 90.9681 21.28C90.4081 20.9867 89.9615 20.5933 89.6281 20.1C89.2948 19.6067 89.1148 19.04 89.0881 18.4V14.98C89.1148 14.34 89.2948 13.7733 89.6281 13.28C89.9748 12.7733 90.4215 12.3733 90.9681 12.08C91.5281 11.7867 92.1548 11.64 92.8481 11.64C93.7415 11.64 94.5415 11.86 95.2481 12.3C95.9548 12.74 96.5081 13.34 96.9081 14.1C97.3215 14.86 97.5281 15.72 97.5281 16.68C97.5281 17.6267 97.3215 18.48 96.9081 19.24C96.5081 20 95.9548 20.6 95.2481 21.04C94.5415 21.48 93.7415 21.7 92.8481 21.7ZM92.3881 19.28C92.8681 19.28 93.2948 19.1733 93.6681 18.96C94.0415 18.7333 94.3281 18.4267 94.5281 18.04C94.7415 17.64 94.8481 17.18 94.8481 16.66C94.8481 16.1533 94.7415 15.7067 94.5281 15.32C94.3281 14.92 94.0415 14.6133 93.6681 14.4C93.2948 14.1733 92.8681 14.06 92.3881 14.06C91.9215 14.06 91.5015 14.1733 91.1281 14.4C90.7548 14.6133 90.4615 14.92 90.2481 15.32C90.0481 15.7067 89.9481 16.1533 89.9481 16.66C89.9481 17.18 90.0481 17.64 90.2481 18.04C90.4615 18.4267 90.7481 18.7333 91.1081 18.96C91.4815 19.1733 91.9081 19.28 92.3881 19.28ZM87.4881 25.54V11.84H90.1081V14.38L89.6681 16.72L90.0881 19.06V25.54H87.4881ZM100.753 21.7C100.273 21.7 99.8796 21.54 99.573 21.22C99.2663 20.9 99.113 20.5067 99.113 20.04C99.113 19.5733 99.2663 19.18 99.573 18.86C99.8796 18.54 100.273 18.38 100.753 18.38C101.22 18.38 101.606 18.54 101.913 18.86C102.22 19.18 102.373 19.5733 102.373 20.04C102.373 20.5067 102.22 20.9 101.913 21.22C101.606 21.54 101.22 21.7 100.753 21.7Z" fill="#2A2F43"/>
</svg>
